<?xml version="1.0" encoding="utf-8"?>
<!-- Generator: Adobe Illustrator 26.5.2, SVG Export Plug-In . SVG Version: 6.00 Build 0)  -->
<svg version="1.1" id="Layer_1" xmlns="http://www.w3.org/2000/svg" xmlns:xlink="http://www.w3.org/1999/xlink" x="0px" y="0px"
	 viewBox="0 0 136 156.4" style="enable-background:new 0 0 136 156.4;" xml:space="preserve">
<style type="text/css">
	.st0{fill:none;stroke:#000000;stroke-width:3;stroke-miterlimit:10;}
	.st1{fill:#27738B;}
	.st2{fill:#FFFFFF;}
	.st3{fill:#3F3B8C;stroke:#FFFFFF;stroke-width:2;stroke-linejoin:round;stroke-miterlimit:10;}
	.st4{fill:none;stroke:#E1C444;stroke-width:2;stroke-linecap:round;stroke-miterlimit:10;}
</style>
<g>
	<path d="M47.4,140.1H30.2c-1.8,0-3.3-1.5-3.3-3.3v0c0-7.8,6.3-14.1,14.1-14.1h13c1.8,0,3.3,1.5,3.3,3.3v4.2
		C57.3,135.7,52.8,140.1,47.4,140.1z"/>
	<path d="M88.6,140.1h17.2c1.8,0,3.3-1.5,3.3-3.3v0c0-7.8-6.3-14.1-14.1-14.1H82c-1.8,0-3.3,1.5-3.3,3.3v4.2
		C78.7,135.7,83.1,140.1,88.6,140.1z"/>
</g>
<path class="st0" d="M22.9,113.5c-0.3-1.1-2.2-9.1,3.1-16.4c5-6.8,12.5-7.8,13.7-7.9"/>
<path class="st0" d="M112.9,113.5c0.3-1.1,2.2-9.1-3.1-16.4c-5-6.8-12.5-7.8-13.7-7.9"/>
<ellipse class="st1" cx="111.7" cy="114.9" rx="7.3" ry="7.1"/>
<ellipse class="st1" cx="24" cy="114.9" rx="7.3" ry="7.1"/>
<path class="st1" d="M99.3,114.7C95,125.6,83.2,136.8,68,137.1c-15.2-0.2-27-11.5-31.3-22.3c-3.3-8.3-1.3-16.3,2.6-32.4
	C44.1,62.6,48.1,46,61,41.5c0.5-0.2,3.3-1.1,7-1.1c3.7,0,6.5,0.9,7,1.1C87.9,46,91.9,62.6,96.7,82.3
	C100.6,98.4,102.6,106.5,99.3,114.7z"/>
<path class="st2" d="M77.8,78.8H58.2c-5.1,0-9.2-4.1-9.2-9.2v0c0-5.1,4.1-9.2,9.2-9.2h19.6c5.1,0,9.2,4.1,9.2,9.2v0
	C86.9,74.7,82.8,78.8,77.8,78.8z"/>
<g>
	<path d="M61.8,71.4c-0.4,3.1-1.7,5.3-3.4,5.3c-1.9,0-3.5-3.2-3.5-7c0-3.9,1.5-7,3.5-7c0.2,0,0.4,0,0.5,0.1
		c-0.8,0.9-1.3,2.6-1.3,4.5c0,2.9,1.1,5.2,2.6,5.2C60.9,72.4,61.4,72,61.8,71.4z"/>
	<path d="M80.8,71.4c-0.4,3.1-1.7,5.3-3.2,5.3c-1.8,0-3.3-3.2-3.3-7c0-3.9,1.5-7,3.3-7c0.2,0,0.4,0,0.5,0.1
		c-0.7,0.9-1.2,2.6-1.2,4.5c0,2.9,1.1,5.2,2.4,5.2C79.9,72.4,80.4,72,80.8,71.4z"/>
</g>
<polygon class="st3" points="64.5,25.4 46.1,32 46.6,53 77.5,41.7 "/>
<path class="st3" d="M72.6,24.7l-33.8,12c-1.5,0.5-3.2-0.3-3.8-1.8l0,0c-0.5-1.5,0.3-3.2,1.8-3.8l33.8-12c1.5-0.5,3.2,0.3,3.8,1.8
	l0,0C74.9,22.5,74.1,24.2,72.6,24.7z"/>
<path class="st4" d="M30.1,26.9c3.6-5.5,9.7-8.5,15.4-7.5c4.6,0.8,7.4,3.9,8.4,5"/>
<g>
	<polyline class="st4" points="18.3,34.4 29.4,28.6 23.4,37.1 	"/>
	<polyline class="st4" points="33.3,41.3 30.1,29.2 28.2,39.2 	"/>
</g>
</svg>
