<?xml version="1.0" encoding="utf-8"?>
<!-- Generator: Adobe Illustrator 26.5.2, SVG Export Plug-In . SVG Version: 6.00 Build 0)  -->
<svg version="1.1" id="Layer_1" xmlns="http://www.w3.org/2000/svg" xmlns:xlink="http://www.w3.org/1999/xlink" x="0px" y="0px"
	 viewBox="0 0 82.8 82.8" style="enable-background:new 0 0 82.8 82.8;" xml:space="preserve">
<style type="text/css">
	.st0{fill:none;stroke:#B8D0D0;stroke-width:6;stroke-linecap:round;stroke-linejoin:round;stroke-miterlimit:10;}
	.st1{fill:none;stroke:#B8D0D0;stroke-width:6;stroke-linecap:square;stroke-linejoin:round;stroke-miterlimit:10;}
</style>
<g id="Layer_1_00000161608447209448936030000012005461109800454016_">
</g>
<g id="Layer_2_00000106112940761534983740000004502793584135479980_">
	<path class="st0" d="M5.3,20.5c3-1.5,9.1-4.1,17.3-3.9c9.1,0.2,15.6,3.7,18.5,5.5c0,16.1,0,32.1,0,48.2c-3-1.7-9.5-4.8-18.2-4.9
		c-8.5-0.2-14.9,2.5-18,4C5,53.1,5.2,36.8,5.3,20.5z"/>
	<path class="st0" d="M76.6,20.5c-3-1.5-9.1-4.1-17.3-3.9c-9.1,0.2-15.6,3.7-18.5,5.5c0,16.1,0,32.1,0,48.2c3-1.7,9.5-4.8,18.2-4.9
		c8.5-0.2,14.9,2.5,18,4C77,53.1,76.8,36.8,76.6,20.5z"/>
	<path class="st1" d="M50.9,33.7c2.1-0.7,5.2-1.5,8.8-1.6c3.7-0.1,6.8,0.6,8.9,1.3"/>
	<path class="st1" d="M50.9,43.3c2.1-0.7,5.2-1.5,8.8-1.6c3.7-0.1,6.8,0.6,8.9,1.3"/>
	<path class="st1" d="M50.9,53.2c2.1-0.7,5.2-1.5,8.8-1.6c3.7-0.1,6.8,0.6,8.9,1.3"/>
</g>
</svg>
