<?xml version="1.0" encoding="utf-8"?>
<!-- Generator: Adobe Illustrator 26.5.2, SVG Export Plug-In . SVG Version: 6.00 Build 0)  -->
<svg version="1.1" xmlns="http://www.w3.org/2000/svg" xmlns:xlink="http://www.w3.org/1999/xlink" x="0px" y="0px"
	 viewBox="0 0 82.8 82.8" style="enable-background:new 0 0 82.8 82.8;" xml:space="preserve">
<style type="text/css">
	.st0{fill:#718484;}
</style>
<g id="Layer_1">
	<g>
		<path class="st0" d="M41.4,0.9C19,0.9,0.9,19,0.9,41.4c0,22.4,18.1,40.5,40.5,40.5c22.4,0,40.5-18.1,40.5-40.5
			C81.8,19,63.7,0.9,41.4,0.9z M65.2,62.9c-9.4,10.3-22,10.7-23.8,10.7c-2,0-14.8-0.1-24-10.3c-8-8.8-8.2-19.4-8.2-21.9
			c0-1.4,0.1-2.6,0.2-3.5c3-1.3,7.2-3.6,11.4-7.6c5.4-5.2,8.2-10.7,9.5-14.1c2.1,3,7.5,10,17.5,14.1c11.2,4.7,21.2,2.8,24.6,1.9
			c0.6,2.1,1.3,5.3,1.3,9.1C73.5,53.5,66.4,61.6,65.2,62.9z"/>
		<circle class="st0" cx="29.1" cy="45.4" r="5.2"/>
		<circle class="st0" cx="53.4" cy="45.4" r="5.2"/>
	</g>
</g>
<g id="Layer_2">
</g>
</svg>
