<?xml version="1.0" encoding="utf-8"?>
<!-- Generator: Adobe Illustrator 26.5.2, SVG Export Plug-In . SVG Version: 6.00 Build 0)  -->
<svg version="1.1" xmlns="http://www.w3.org/2000/svg" xmlns:xlink="http://www.w3.org/1999/xlink" x="0px" y="0px"
	 viewBox="0 0 82.8 82.8" style="enable-background:new 0 0 82.8 82.8;" xml:space="preserve">
<style type="text/css">
	.st0{fill:#B8D0CF;}
</style>
<g id="Layer_1">
</g>
<g id="Layer_2">
	<path class="st0" d="M72.9,4.5l-16.5,6.7c-1.2,0.5-2.5,0.5-3.6,0.1L29.9,2.9c-1.1-0.4-2.3-0.4-3.4,0L6.2,10c-2,0.7-3.4,2.7-3.4,4.8
		l0.3,57.6c0,3.6,3.7,6.1,7.1,4.7l15.9-6.8c1.2-0.5,2.5-0.5,3.7-0.1l23.4,8.5c1.1,0.4,2.3,0.4,3.5,0l20.4-7.3c2-0.7,3.4-2.7,3.4-4.8
		L79.9,9.2C79.9,5.6,76.3,3.2,72.9,4.5z M54.2,70.7l-25.9-9.1l0.2-50.2l25.9,8.7L54.2,70.7z"/>
</g>
</svg>
