<?xml version="1.0" encoding="utf-8"?>
<!-- Generator: Adobe Illustrator 26.5.2, SVG Export Plug-In . SVG Version: 6.00 Build 0)  -->
<svg version="1.1" id="Layer_1" xmlns="http://www.w3.org/2000/svg" xmlns:xlink="http://www.w3.org/1999/xlink" x="0px" y="0px"
	 viewBox="0 0 253.4 156.4" style="enable-background:new 0 0 253.4 156.4;" xml:space="preserve">
<style type="text/css">
	.st0{fill:none;stroke:#000000;stroke-width:3;stroke-miterlimit:10;}
	.st1{fill:#ADC4C4;}
	.st2{fill:#FFFFFF;}
	.st3{fill:#3F3B8C;stroke:#FFFFFF;stroke-width:2;stroke-linejoin:round;stroke-miterlimit:10;}
	.st4{fill:none;stroke:#E1C444;stroke-width:2;stroke-linecap:round;stroke-miterlimit:10;}
	.st5{font-family:'ComicSansMS-Italic';}
	.st6{font-size:53px;}
</style>
<g>
	<path d="M41.2,140.1H24c-1.8,0-3.3-1.5-3.3-3.3v0c0-7.8,6.3-14.1,14.1-14.1h13c1.8,0,3.3,1.5,3.3,3.3v4.2
		C51.1,135.7,46.7,140.1,41.2,140.1z"/>
	<path d="M82.4,140.1h17.2c1.8,0,3.3-1.5,3.3-3.3v0c0-7.8-6.3-14.1-14.1-14.1h-13c-1.8,0-3.3,1.5-3.3,3.3v4.2
		C72.5,135.7,76.9,140.1,82.4,140.1z"/>
</g>
<path class="st0" d="M16.7,113.5c-0.3-1.1-2.2-9.1,3.1-16.4c5-6.8,12.5-7.8,13.7-7.9"/>
<path class="st0" d="M103.6,63c0.4,1.1,3.3,8.8-1.1,16.6c-4.1,7.4-11.5,9.3-12.7,9.6"/>
<ellipse transform="matrix(0.9925 -0.1224 0.1224 0.9925 -6.8038 12.9899)" class="st1" cx="102.3" cy="61.9" rx="7.3" ry="7.1"/>
<ellipse class="st1" cx="17.8" cy="114.9" rx="7.3" ry="7.1"/>
<path class="st1" d="M93.1,114.7c-4.3,10.9-16.1,22.1-31.3,22.3c-15.2-0.2-27-11.5-31.3-22.3c-3.3-8.3-1.3-16.3,2.6-32.4
	c4.8-19.7,8.8-36.3,21.7-40.8c0.5-0.2,3.3-1.1,7-1.1c3.7,0,6.5,0.9,7,1.1C81.7,46,85.7,62.6,90.5,82.3
	C94.4,98.4,96.4,106.5,93.1,114.7z"/>
<path class="st2" d="M71.6,78.8H52c-5.1,0-9.2-4.1-9.2-9.2v0c0-5.1,4.1-9.2,9.2-9.2h19.6c5.1,0,9.2,4.1,9.2,9.2v0
	C80.8,74.7,76.6,78.8,71.6,78.8z"/>
<g>
	<path d="M55.6,71.4c-0.4,3.1-1.7,5.3-3.4,5.3c-1.9,0-3.5-3.2-3.5-7c0-3.9,1.5-7,3.5-7c0.2,0,0.4,0,0.5,0.1
		c-0.8,0.9-1.3,2.6-1.3,4.5c0,2.9,1.1,5.2,2.6,5.2C54.7,72.4,55.2,72,55.6,71.4z"/>
	<path d="M74.6,71.4c-0.4,3.1-1.7,5.3-3.2,5.3c-1.8,0-3.3-3.2-3.3-7c0-3.9,1.5-7,3.3-7c0.2,0,0.4,0,0.5,0.1
		c-0.7,0.9-1.2,2.6-1.2,4.5c0,2.9,1.1,5.2,2.4,5.2C73.7,72.4,74.2,72,74.6,71.4z"/>
</g>
<polygon class="st3" points="58.3,25.4 39.9,32 40.4,53 71.3,41.7 "/>
<path class="st3" d="M66.4,24.7l-33.8,12c-1.5,0.5-3.2-0.3-3.8-1.8l0,0c-0.5-1.5,0.3-3.2,1.8-3.8l33.8-12c1.5-0.5,3.2,0.3,3.8,1.8v0
	C68.7,22.5,67.9,24.2,66.4,24.7z"/>
<path class="st4" d="M23.9,26.9c3.6-5.5,9.7-8.5,15.4-7.5c4.6,0.8,7.4,3.9,8.4,5"/>
<g>
	<polyline class="st4" points="12.1,34.4 23.2,28.6 17.2,37.1 	"/>
	<polyline class="st4" points="27.1,41.3 23.9,29.2 22,39.2 	"/>
</g>
<text transform="matrix(1 0 0 1 113.1914 70.4268)"><tspan x="0" y="0" class="st5 st6">Bob’s </tspan><tspan x="0" y="63.6" class="st5 st6">Class</tspan></text>
</svg>
