<?xml version="1.0" encoding="utf-8"?>
<!-- Generator: Adobe Illustrator 26.5.2, SVG Export Plug-In . SVG Version: 6.00 Build 0)  -->
<svg version="1.1" xmlns="http://www.w3.org/2000/svg" xmlns:xlink="http://www.w3.org/1999/xlink" x="0px" y="0px"
	 viewBox="0 0 82.8 82.8" style="enable-background:new 0 0 82.8 82.8;" xml:space="preserve">
<style type="text/css">
	.st0{fill:#B8D0D0;}
</style>
<g id="Layer_1">
</g>
<g id="Layer_2">
	<path class="st0" d="M72.3,2.3H11.4c-4.8,0-8.7,3.9-8.7,8.7v60.9c0,4.8,3.9,8.7,8.7,8.7h60.9c4.8,0,8.7-3.9,8.7-8.7V11
		C81,6.2,77.1,2.3,72.3,2.3z M16.7,20.7c0.6-0.6,1.4-1,2.3-1h15.5c1.8,0,3.3,1.5,3.3,3.3c0,0.9-0.4,1.7-1,2.3c-0.6,0.6-1.4,1-2.3,1
		H19c-1.8,0-3.3-1.5-3.3-3.3C15.8,22.1,16.1,21.3,16.7,20.7z M72.2,67.8c0,2.2-1.8,4-4,4H11l61.2-61.2V67.8z"/>
	<path class="st0" d="M67.8,55.4c0,0.9-0.4,1.7-1,2.3c-0.6,0.6-1.4,1-2.3,1h-5.3V64c0,1.8-1.5,3.3-3.3,3.3c-0.9,0-1.7-0.4-2.3-1
		c-0.6-0.6-1-1.4-1-2.3v-5.3h-5.3c-1.8,0-3.3-1.5-3.3-3.3c0-0.9,0.4-1.7,1-2.3c0.6-0.6,1.4-0.9,2.3-0.9h5.3v-5.3
		c0-1.8,1.5-3.3,3.3-3.3c0.9,0,1.7,0.4,2.3,1c0.6,0.6,1,1.4,1,2.3v5.3h5.3C66.4,52.2,67.8,53.6,67.8,55.4z"/>
</g>
</svg>
